# xmcd
#
# Track frame offsets: 
#        150
#        20071
#        36109
#        51518
#        78556
#        90464
#        109871
#        127314
#        141708
#        159608
#        171839
#        189136
#        204701
#
# Disc length: 3069 seconds
#
# Revision: 0
# Processed by: cddbd v1.5.2PL0 Copyright (c) Steve Scherf et al.
# Submitted via: ExactAudioCopy v1.0b3
#
DISCID=c00bfb0d
DTITLE=Chicken Dinner Road - Off the Beaten Path
DYEAR=2012
DGENRE=Bluegrass
TTITLE0=Off the Beaten Path
TTITLE1=Fog
TTITLE2=Chicken Fingers
TTITLE3=Ballad of Clay
TTITLE4=Highway 40 Blues
TTITLE5=Lonely
TTITLE6=High Tide in Wingo
TTITLE7=The Decision
TTITLE8=I Know My Baby Loves Me
TTITLE9=Talk to the Lord
TTITLE10=Yellow Pine
TTITLE11=At the Codfish Ball
TTITLE12=Is It Happy Hour Yet?
EXTD=
EXTT0=
EXTT1=
EXTT2=
EXTT3=
EXTT4=
EXTT5=
EXTT6=
EXTT7=
EXTT8=
EXTT9=
EXTT10=
EXTT11=
EXTT12=
PLAYORDER=
